<svg viewBox="0 0 24 24" xml:space="preserve" xmlns="http://www.w3.org/2000/svg"><path d="M20.9 0H1.1C.5 0 0 .5 0 1.1v21.8c0 .6.5 1.1 1.1 1.1h19.8c.6 0 1.1-.5 1.1-1.1V1.1c0-.6-.5-1.1-1.1-1.1zM20 22H2V2h18v20z" fill="#fafafa" class="fill-000000"></path><path d="M13 10.4V15l2-1 2 1v-4.6c1.2-.7 2-2 2-3.4 0-2.2-1.8-4-4-4s-4 1.8-4 4c0 1.5.8 2.8 2 3.4zm3 2.9-1-.5-1 .5v-2.4c.3.1.7.1 1 .1s.7-.1 1-.1v2.4zM15 4c1.7 0 3 1.3 3 3s-1.3 3-3 3-3-1.3-3-3 1.3-3 3-3zM5 12h7v1H5zM5 14h7v1H5zM5 16h12v1H5zM5 18h12v1H5zM10.1 6H5v1h5c0-.3 0-.7.1-1zM10.1 8H5v1h5.4c-.1-.3-.2-.7-.3-1z" fill="#fafafa" class="fill-000000"></path><path d="M11 10H5v1h7c-.4-.3-.7-.6-1-1z" fill="#fafafa" class="fill-000000"></path></svg>